<?xml version="1.0" encoding="UTF-8"?>
<svg xmlns="http://www.w3.org/2000/svg" width="1120" height="620" viewBox="0 0 1120 620" role="img" aria-labelledby="title desc">
  <title id="title">Thesis-reported ACE-FinQA gain by program length</title>
  <desc id="desc">Transcription of Thesis Table 4.5. Displayed buckets do not aggregate to the thesis headline; see results/audit.md.</desc>
  <style>text{font-family:Inter,'Segoe UI',Arial,sans-serif}</style>
  <rect x="0" y="0" width="1120" height="620" fill="#ffffff"/>
  <text x="56" y="56" fill="#172033" font-size="28" font-weight="700">Thesis-reported gain by program length</text>
  <text x="56" y="88" fill="#5f6b7a" font-size="16">Table 4.5 transcription · see results/audit.md</text>
  <rect x="760" y="48" width="18" height="18" fill="#2563eb" rx="3"/>
  <text x="787" y="63" fill="#172033" font-size="14">Qwen3-8B</text>
  <rect x="900" y="48" width="18" height="18" fill="#7c3aed" rx="3"/>
  <text x="927" y="63" fill="#172033" font-size="14">ACE-FinQA</text>
  <line x1="115" y1="510" x2="1040" y2="510" stroke="#d9e0e8" stroke-width="1"/>
  <text x="101" y="515" fill="#5f6b7a" font-size="13" text-anchor="end">0%</text>
  <line x1="115" y1="416.25" x2="1040" y2="416.25" stroke="#d9e0e8" stroke-width="1"/>
  <text x="101" y="421.25" fill="#5f6b7a" font-size="13" text-anchor="end">20%</text>
  <line x1="115" y1="322.5" x2="1040" y2="322.5" stroke="#d9e0e8" stroke-width="1"/>
  <text x="101" y="327.5" fill="#5f6b7a" font-size="13" text-anchor="end">40%</text>
  <line x1="115" y1="228.75" x2="1040" y2="228.75" stroke="#d9e0e8" stroke-width="1"/>
  <text x="101" y="233.75" fill="#5f6b7a" font-size="13" text-anchor="end">60%</text>
  <line x1="115" y1="135" x2="1040" y2="135" stroke="#d9e0e8" stroke-width="1"/>
  <text x="101" y="140" fill="#5f6b7a" font-size="13" text-anchor="end">80%</text>
  <rect x="165.5" y="200.766" width="34" height="309.234" fill="#2563eb" rx="3"/>
  <rect x="215.5" y="178.641" width="34" height="331.359" fill="#7c3aed" rx="3"/>
  <text x="207.5" y="541" fill="#172033" font-size="16" text-anchor="middle" font-weight="650">1</text>
  <text x="207.5" y="562" fill="#5f6b7a" font-size="12" text-anchor="middle">n=522</text>
  <text x="207.5" y="165.641" fill="#7c3aed" font-size="14" text-anchor="middle" font-weight="700">+4.72</text>
  <rect x="350.5" y="206.203" width="34" height="303.797" fill="#2563eb" rx="3"/>
  <rect x="400.5" y="177.516" width="34" height="332.484" fill="#7c3aed" rx="3"/>
  <text x="392.5" y="541" fill="#172033" font-size="16" text-anchor="middle" font-weight="650">2</text>
  <text x="392.5" y="562" fill="#5f6b7a" font-size="12" text-anchor="middle">n=289</text>
  <text x="392.5" y="164.516" fill="#7c3aed" font-size="14" text-anchor="middle" font-weight="700">+6.12</text>
  <rect x="535.5" y="357.375" width="34" height="152.625" fill="#2563eb" rx="3"/>
  <rect x="585.5" y="281.062" width="34" height="228.938" fill="#7c3aed" rx="3"/>
  <text x="577.5" y="541" fill="#172033" font-size="16" text-anchor="middle" font-weight="650">3</text>
  <text x="577.5" y="562" fill="#5f6b7a" font-size="12" text-anchor="middle">n=43</text>
  <text x="577.5" y="268.062" fill="#7c3aed" font-size="14" text-anchor="middle" font-weight="700">+16.28</text>
  <rect x="720.5" y="409.547" width="34" height="100.453" fill="#2563eb" rx="3"/>
  <rect x="770.5" y="342.609" width="34" height="167.391" fill="#7c3aed" rx="3"/>
  <text x="762.5" y="541" fill="#172033" font-size="16" text-anchor="middle" font-weight="650">4</text>
  <text x="762.5" y="562" fill="#5f6b7a" font-size="12" text-anchor="middle">n=14</text>
  <text x="762.5" y="329.609" fill="#7c3aed" font-size="14" text-anchor="middle" font-weight="700">+14.28</text>
  <rect x="905.5" y="416.25" width="34" height="93.75" fill="#2563eb" rx="3"/>
  <rect x="955.5" y="353.766" width="34" height="156.234" fill="#7c3aed" rx="3"/>
  <text x="947.5" y="541" fill="#172033" font-size="16" text-anchor="middle" font-weight="650">5+</text>
  <text x="947.5" y="562" fill="#5f6b7a" font-size="12" text-anchor="middle">n=15</text>
  <text x="947.5" y="340.766" fill="#7c3aed" font-size="14" text-anchor="middle" font-weight="700">+13.33</text>
  <text x="577.5" y="598" fill="#5f6b7a" font-size="14" text-anchor="middle">Gold-program steps</text>
</svg>
