<?xml version="1.0" encoding="UTF-8"?>
<svg xmlns="http://www.w3.org/2000/svg" width="1120" height="590" viewBox="0 0 1120 590" role="img" aria-labelledby="title desc">
  <title id="title">Thesis-reported FinQA model comparison</title>
  <desc id="desc">Transcription of Thesis Table 4.4. See results/audit.md for discrepancies and count-backed audited results.</desc>
  <style>text{font-family:Inter,'Segoe UI',Arial,sans-serif}</style>
  <rect x="0" y="0" width="1120" height="590" fill="#ffffff"/>
  <text x="56" y="56" fill="#172033" font-size="28" font-weight="700">Thesis-reported FinQA comparison</text>
  <text x="56" y="88" fill="#5f6b7a" font-size="16">Table 4.4 transcription · see results/audit.md</text>
  <rect x="760" y="48" width="18" height="18" fill="#2563eb" rx="3"/>
  <text x="787" y="63" fill="#172033" font-size="14">Execution accuracy</text>
  <rect x="930" y="48" width="18" height="18" fill="#7c3aed" rx="3"/>
  <text x="957" y="63" fill="#172033" font-size="14">Program accuracy</text>
  <line x1="345" y1="125" x2="345" y2="535" stroke="#d9e0e8" stroke-width="1"/>
  <text x="345" y="555" fill="#5f6b7a" font-size="13" text-anchor="middle">0%</text>
  <line x1="486" y1="125" x2="486" y2="535" stroke="#d9e0e8" stroke-width="1"/>
  <text x="486" y="555" fill="#5f6b7a" font-size="13" text-anchor="middle">20%</text>
  <line x1="627" y1="125" x2="627" y2="535" stroke="#d9e0e8" stroke-width="1"/>
  <text x="627" y="555" fill="#5f6b7a" font-size="13" text-anchor="middle">40%</text>
  <line x1="768" y1="125" x2="768" y2="535" stroke="#d9e0e8" stroke-width="1"/>
  <text x="768" y="555" fill="#5f6b7a" font-size="13" text-anchor="middle">60%</text>
  <line x1="909" y1="125" x2="909" y2="535" stroke="#d9e0e8" stroke-width="1"/>
  <text x="909" y="555" fill="#5f6b7a" font-size="13" text-anchor="middle">80%</text>
  <line x1="1050" y1="125" x2="1050" y2="535" stroke="#d9e0e8" stroke-width="1"/>
  <text x="1050" y="555" fill="#5f6b7a" font-size="13" text-anchor="middle">100%</text>
  <rect x="38" y="129" width="1030" height="62" fill="#eff6ff" rx="8"/>
  <text x="56" y="155" fill="#172033" font-size="16" font-weight="650">Qwen3-8B Eng-Prompt (FS-9)</text>
  <text x="56" y="176" fill="#5f6b7a" font-size="12">Project baseline</text>
  <rect x="345" y="137" width="419.827" height="17" fill="#2563eb" rx="3"/>
  <rect x="345" y="160" width="371.253" height="17" fill="#7c3aed" rx="3"/>
  <text x="772.827" y="150" fill="#172033" font-size="13">59.55%</text>
  <text x="724.253" y="174" fill="#172033" font-size="13">52.66%</text>
  <text x="56" y="231" fill="#172033" font-size="16" font-weight="500">FinQANet (RoBERTa-large)</text>
  <text x="56" y="252" fill="#5f6b7a" font-size="12">External reference</text>
  <rect x="345" y="213" width="431.742" height="17" fill="#2563eb" rx="3"/>
  <rect x="345" y="236" width="414.963" height="17" fill="#7c3aed" rx="3"/>
  <text x="784.742" y="226" fill="#172033" font-size="13">61.24%</text>
  <text x="767.963" y="250" fill="#172033" font-size="13">58.86%</text>
  <rect x="38" y="281" width="1030" height="62" fill="#f5f3ff" rx="8"/>
  <text x="56" y="307" fill="#172033" font-size="16" font-weight="650">ACE-FinQA</text>
  <text x="56" y="328" fill="#5f6b7a" font-size="12">Proposed method</text>
  <rect x="345" y="289" width="479.823" height="17" fill="#2563eb" rx="3"/>
  <rect x="345" y="312" width="436.395" height="17" fill="#7c3aed" rx="3"/>
  <text x="832.823" y="302" fill="#172033" font-size="13">68.06%</text>
  <text x="789.395" y="326" fill="#172033" font-size="13">61.90%</text>
  <text x="56" y="383" fill="#172033" font-size="16" font-weight="500">FinQANet-Gold (oracle retriever)</text>
  <text x="56" y="404" fill="#5f6b7a" font-size="12">External reference</text>
  <rect x="345" y="365" width="493.5" height="17" fill="#2563eb" rx="3"/>
  <rect x="345" y="388" width="484.758" height="17" fill="#7c3aed" rx="3"/>
  <text x="846.5" y="378" fill="#172033" font-size="13">70.00%</text>
  <text x="837.758" y="402" fill="#172033" font-size="13">68.76%</text>
  <text x="56" y="459" fill="#172033" font-size="16" font-weight="500">Human Expert (CPA/MBA)</text>
  <text x="56" y="480" fill="#5f6b7a" font-size="12">External reference</text>
  <rect x="345" y="441" width="642.678" height="17" fill="#2563eb" rx="3"/>
  <rect x="345" y="464" width="616.804" height="17" fill="#7c3aed" rx="3"/>
  <text x="995.678" y="454" fill="#172033" font-size="13">91.16%</text>
  <text x="969.804" y="478" fill="#172033" font-size="13">87.49%</text>
</svg>
